# xmcd
#
# Track frame offsets:
#	150
#	71450
#	126314
#
# Disc length: 1816 seconds
#
# Revision: 0
# Processed by: cddbd v1.5.2PL0 Copyright (c) Steve Scherf et al.
# Submitted via: dBpowerAMP V4.0
#
DISCID=25071603
DTITLE=3 Chardons - Tchico
DYEAR=1900
DGENRE=Conte
TTITLE0=Le texte et la musique
TTITLE1=Le texte seul
TTITLE2=La chanson
EXTD=
EXTT0=
EXTT1=
EXTT2=
PLAYORDER=
